HIERARCHY
ROOT Hips
{
	OFFSET 39.759499 -3.023276 98.870697
	CHANNELS 6 Xposition Yposition Zposition Xrotation Yrotation Zrotation
	JOINT spine
	{
		OFFSET 0.000000 -0.477352 8.301041
		CHANNELS 3 Xrotation Yrotation Zrotation
		JOINT spine1
		{
			OFFSET 0.000000 -0.000002 10.456497
			CHANNELS 3 Xrotation Yrotation Zrotation
			JOINT spine2
			{
				OFFSET 0.000000 -0.000002 10.019203
				CHANNELS 3 Xrotation Yrotation Zrotation
				JOINT Neck
				{
					OFFSET 0.000000 -1.226414 25.723503
					CHANNELS 3 Xrotation Yrotation Zrotation
					JOINT Head
					{
						OFFSET 0.000000 -0.000001 7.771744
						CHANNELS 3 Xrotation Yrotation Zrotation
						End Site
						{
							OFFSET 0.000000 6.203937 18.811996
						}
					}
				}
				JOINT RightShoulder
				{
					OFFSET -4.218800 0.587437 10.820000
					CHANNELS 3 Xrotation Yrotation Zrotation
					JOINT RightArm
					{
						OFFSET 0.000000 -0.000002 14.191406
						CHANNELS 3 Xrotation Yrotation Zrotation
						JOINT RightArmRoll
						{
							OFFSET 0.000000 -0.000001 7.164093
							CHANNELS 3 Xrotation Yrotation Zrotation
							JOINT RightForeArm
							{
								OFFSET 0.000000 -0.000003 20.866501
								CHANNELS 3 Xrotation Yrotation Zrotation
								JOINT RightForeArmRoll
								{
									OFFSET 0.000000 -0.000001 8.039215
									CHANNELS 3 Xrotation Yrotation Zrotation
									JOINT RightHand
									{
										OFFSET 0.000000 -0.000003 16.132996
										CHANNELS 3 Xrotation Yrotation Zrotation
										End Site
										{
											OFFSET 0.000000 0.000000 0.100006
										}
									}
								}
							}
						}
					}
				}
				JOINT LeftShoulder
				{
					OFFSET 4.218800 0.587437 10.820000
					CHANNELS 3 Xrotation Yrotation Zrotation
					JOINT LeftArm
					{
						OFFSET 0.000000 -0.000002 14.191406
						CHANNELS 3 Xrotation Yrotation Zrotation
						JOINT LeftArmRoll
						{
							OFFSET 0.000000 -0.000001 7.164093
							CHANNELS 3 Xrotation Yrotation Zrotation
							JOINT LeftForeArm
							{
								OFFSET 0.000000 -0.000003 20.866501
								CHANNELS 3 Xrotation Yrotation Zrotation
								JOINT LeftForeArmRoll
								{
									OFFSET 0.000000 -0.000001 8.039215
									CHANNELS 3 Xrotation Yrotation Zrotation
									JOINT LeftHand
									{
										OFFSET 0.000000 -0.000003 16.132996
										CHANNELS 3 Xrotation Yrotation Zrotation
										End Site
										{
											OFFSET 0.000000 0.000000 0.100006
										}
									}
								}
							}
						}
					}
				}
			}
		}
	}
	JOINT RightUpLeg
	{
		OFFSET -7.357731 1.131810 -1.349213
		CHANNELS 3 Xrotation Yrotation Zrotation
		JOINT RightUpLegRoll
		{
			OFFSET 0.000000 -0.000003 18.916801
			CHANNELS 3 Xrotation Yrotation Zrotation
			JOINT RightLeg
			{
				OFFSET 0.000000 0.000004 -23.425598
				CHANNELS 3 Xrotation Yrotation Zrotation
				JOINT RightLegRoll
				{
					OFFSET 0.000000 -0.000004 23.502296
					CHANNELS 3 Xrotation Yrotation Zrotation
					JOINT RightFoot
					{
						OFFSET 0.000000 -0.000003 19.561707
						CHANNELS 3 Xrotation Yrotation Zrotation
						JOINT RightToeBase
						{
							OFFSET 0.000000 -0.000003 16.352600
							CHANNELS 3 Xrotation Yrotation Zrotation
							End Site
							{
								OFFSET 0.006931 0.912836 7.919434
							}
						}
					}
				}
			}
		}
	}
	JOINT LeftUpLeg
	{
		OFFSET 7.357731 1.131810 -1.349213
		CHANNELS 3 Xrotation Yrotation Zrotation
		JOINT LeftUpLegRoll
		{
			OFFSET 0.000000 -0.000003 18.916901
			CHANNELS 3 Xrotation Yrotation Zrotation
			JOINT LeftLeg
			{
				OFFSET 0.000000 -0.000004 23.425507
				CHANNELS 3 Xrotation Yrotation Zrotation
				JOINT LeftLegRoll
				{
					OFFSET 0.000000 -0.000004 23.719498
					CHANNELS 3 Xrotation Yrotation Zrotation
					JOINT LeftFoot
					{
						OFFSET 0.000000 -0.000003 19.344406
						CHANNELS 3 Xrotation Yrotation Zrotation
						JOINT LeftToeBase
						{
							OFFSET 0.000000 -0.000003 16.352600
							CHANNELS 3 Xrotation Yrotation Zrotation
							End Site
							{
								OFFSET -0.031063 0.912836 7.919434
							}
						}
					}
				}
			}
		}
	}
}
MOTION
Frames: 9
Frame Time: 0.041667
39.889702 -2.943259 98.871597 -1.693297 -1.481783 1.238410 -2.653060 0.000221 0.086667 -1.305170 -0.003929 0.175247 0.339904 -0.001850 0.179548 39.002433 1.821154 -1.400795 -21.740238 -0.426642 -1.074642 -13.435374 -27.220898 -14.441550 -122.740043 -193.593926 -83.797815 0.000001 -0.000000 0.000001 71.430610 10.756406 6.271020 0.000004 0.000007 -3.007179 -5.000181 -7.999230 0.000098 -12.679438 31.601595 13.620806 -127.803932 183.550761 83.971350 -0.000001 -0.000000 0.000000 60.457208 -5.675818 -1.539027 -0.000000 -0.000004 3.009871 -5.000240 7.998718 -0.000162 -0.899479 -174.606669 1.731498 179.999991 -0.000005 -1.044003 174.061825 -4.154661 -0.655753 -0.000002 0.000001 0.066375 69.071224 6.869925 2.188421 25.456952 -7.355613 0.000010 -0.290850 176.584036 1.371230 -0.000005 -0.000004 -1.103720 -8.041182 3.678237 0.886001 -0.000006 0.000004 -0.093653 67.993652 -6.927459 -2.104541 25.456952 7.355614 0.000000 
39.891705 -2.940799 98.876495 -1.701580 -1.483835 1.246414 -2.649162 0.003201 0.086534 -1.297720 0.001546 0.175125 0.347346 0.003613 0.179156 38.953033 1.751728 -1.375436 -21.711054 -0.363067 -1.057582 -13.444709 -27.244399 -14.456507 -122.651674 -193.717620 -83.848734 0.000004 -0.000000 0.000001 71.743276 10.688879 6.285481 0.000004 0.000003 -3.007171 -5.000184 -7.999229 0.000101 -12.667417 31.569367 13.601885 -127.666522 183.658090 83.862770 0.000001 0.000001 -0.000001 60.608483 -5.656559 -1.562053 0.000001 -0.000003 3.009872 -5.000239 7.998725 -0.000165 -0.896640 -174.605658 1.733820 179.999991 -0.000005 -1.044003 174.053793 -4.154601 -0.656335 -0.000002 0.000001 0.066333 69.070479 6.869920 2.188466 25.456955 -7.355614 0.000010 -0.293214 176.585047 1.370136 -0.000005 -0.000005 -1.103880 -8.052457 3.678215 0.886513 -0.000006 0.000004 -0.093717 67.994062 -6.927420 -2.104609 25.456955 7.355613 -0.000000 
39.889904 -2.935308 98.875702 -1.709724 -1.485878 1.254572 -2.645220 0.006147 0.086401 -1.290190 0.006941 0.175007 0.354881 0.008997 0.178749 38.903142 1.682748 -1.350374 -21.681812 -0.299191 -1.040661 -13.454393 -27.267867 -14.471919 -122.564712 -193.834731 -83.900521 0.000003 -0.000003 0.000002 72.050033 10.621679 6.298960 0.000004 0.000004 -3.007173 -5.000180 -7.999231 0.000101 -12.655017 31.538562 13.582530 -127.531858 183.760898 83.757298 0.000001 -0.000000 0.000002 60.756971 -5.637226 -1.584456 -0.000002 -0.000005 3.009872 -5.000238 7.998724 -0.000161 -0.893879 -174.604661 1.736014 179.999991 -0.000005 -1.044003 174.045938 -4.154541 -0.656904 -0.000002 0.000001 0.066291 69.069632 6.869911 2.188516 25.456947 -7.355614 0.000010 -0.295765 176.585047 1.369028 -0.000005 -0.000005 -1.104040 -8.063660 3.678241 0.887013 -0.000006 0.000004 -0.093778 67.994677 -6.927362 -2.104559 25.456952 7.355614 -0.000000 
39.889297 -2.933098 98.870689 -1.717778 -1.487891 1.262743 -2.641258 0.008993 0.086266 -1.282589 0.012156 0.174887 0.362483 0.014201 0.178329 38.853535 1.615277 -1.325951 -21.653091 -0.236032 -1.024093 -13.464074 -27.290349 -14.487221 -122.479089 -193.944246 -83.955845 0.000004 -0.000000 0.000001 72.349851 10.554987 6.311467 0.000003 0.000006 -3.007174 -5.000183 -7.999229 0.000102 -12.641960 31.509797 13.562312 -127.400950 183.858461 83.656703 -0.000000 0.000000 -0.000000 60.903089 -5.617665 -1.606290 -0.000001 -0.000004 3.009870 -5.000237 7.998721 -0.000167 -0.891147 -174.603636 1.738085 179.999991 -0.000005 -1.044003 174.038329 -4.154484 -0.657455 -0.000002 0.000001 0.066249 69.068779 6.869862 2.188561 25.456955 -7.355613 0.000010 -0.298451 176.585061 1.367868 -0.000005 -0.000005 -1.104200 -8.074844 3.678298 0.887504 -0.000006 0.000004 -0.093835 67.995196 -6.927369 -2.104429 25.456957 7.355613 0.000000 
39.889702 -2.928348 98.868500 -1.725811 -1.489824 1.270776 -2.637289 0.011678 0.086127 -1.274940 0.017089 0.174759 0.370130 0.019124 0.177899 38.805067 1.550378 -1.302495 -21.625511 -0.174616 -1.008092 -13.473342 -27.311297 -14.501885 -122.395023 -194.045292 -84.012324 0.000003 -0.000003 0.000003 72.641869 10.488863 6.322785 0.000004 0.000003 -3.007169 -5.000183 -7.999236 0.000097 -12.627897 31.483900 13.540804 -127.275029 183.950054 83.561668 -0.000001 -0.000002 0.000001 61.047213 -5.597807 -1.627403 0.000000 -0.000004 3.009870 -5.000244 7.998722 -0.000164 -0.888387 -174.602653 1.740059 179.999991 -0.000005 -1.044003 174.031034 -4.154429 -0.657983 -0.000002 0.000001 0.066207 69.067720 6.869839 2.188622 25.456947 -7.355616 0.000011 -0.301225 176.585047 1.366633 -0.000005 -0.000004 -1.104360 -8.086050 3.678414 0.887993 -0.000006 0.000004 -0.093892 67.995927 -6.927315 -2.104472 25.456957 7.355613 -0.000001 
39.885899 -2.924747 98.869209 -1.733866 -1.491647 1.278551 -2.633318 0.014137 0.085983 -1.267271 0.021640 0.174616 0.377797 0.023663 0.177460 38.758636 1.489124 -1.280342 -21.600046 -0.115967 -0.992866 -13.481880 -27.329948 -14.515414 -122.312692 -194.136830 -84.071419 0.000002 -0.000000 0.000003 72.925151 10.423331 6.332775 0.000002 0.000008 -3.007171 -5.000179 -7.999235 0.000098 -12.612340 31.461709 13.517521 -127.155091 184.034926 83.471865 0.000001 0.000001 -0.000000 61.189903 -5.577418 -1.647921 -0.000001 -0.000004 3.009869 -5.000238 7.998721 -0.000163 -0.885539 -174.601642 1.741941 179.999991 -0.000005 -1.044003 174.024136 -4.154378 -0.658483 -0.000002 0.000002 0.066166 69.066436 6.869804 2.188696 25.456953 -7.355615 0.000010 -0.304037 176.585061 1.365291 -0.000005 -0.000004 -1.104510 -8.097334 3.678569 0.888484 -0.000006 0.000004 -0.093947 67.996855 -6.927286 -2.104407 25.456957 7.355613 0.000000 
39.888599 -2.920708 98.870392 -1.741990 -1.493330 1.285928 -2.629377 0.016308 0.085832 -1.259611 0.025706 0.174450 0.385458 0.027720 0.177015 38.715056 1.432573 -1.259797 -21.577114 -0.061110 -0.978616 -13.489478 -27.345543 -14.527350 -122.232246 -194.217932 -84.132740 0.000003 0.000000 0.000002 73.198680 10.358558 6.341432 0.000001 0.000007 -3.007167 -5.000182 -7.999232 0.000099 -12.595017 31.443749 13.492004 -127.042270 184.112312 83.390879 -0.000001 0.000002 0.000000 61.331465 -5.556362 -1.667784 -0.000001 -0.000004 3.009879 -5.000241 7.998724 -0.000162 -0.882559 -174.601642 1.743761 179.999991 -0.000005 -1.044003 174.017702 -4.154329 -0.659946 -0.000002 0.000001 0.066125 69.064851 6.869787 2.188791 25.456950 -7.355614 0.000011 -0.306840 176.584050 1.363813 -0.000005 -0.000004 -1.104660 -8.108749 3.678772 0.888982 -0.000006 0.000004 -0.094004 67.997996 -6.927234 -2.104326 25.456955 7.355613 0.000000 
39.890804 -2.918099 98.870796 -1.750244 -1.494833 1.292777 -2.625482 0.018127 0.085672 -1.251981 0.029186 0.174258 0.393088 0.031192 0.176566 38.675034 1.381797 -1.241172 -21.557501 -0.011073 -0.965543 -13.495710 -27.357431 -14.537146 -122.153726 -194.287613 -84.196869 0.000004 -0.000004 0.000002 73.461519 10.294618 6.348430 0.000003 0.000005 -3.007171 -5.000183 -7.999227 0.000099 -12.575568 31.430946 13.463854 -126.937713 184.181460 83.318288 0.000001 -0.000002 -0.000000 61.472269 -5.534582 -1.686854 0.000002 -0.000004 3.009876 -5.000242 7.998723 -0.000166 -0.879390 -174.600631 1.745495 179.999991 -0.000005 -1.044003 174.011773 -4.155276 -0.660479 -0.000002 0.000001 0.066084 69.062932 6.869753 2.188804 25.456953 -7.355615 0.000010 -0.309583 176.584036 1.362157 -0.000005 -0.000004 -1.104800 -8.120366 3.679022 0.889492 -0.000006 0.000004 -0.094063 67.999348 -6.927198 -2.104332 25.456957 7.355613 0.000000 
39.882500 -2.908129 98.868294 -1.758680 -1.496125 1.298947 -2.621638 0.019530 0.085502 -1.244411 0.031981 0.174032 0.400662 0.033977 0.176116 38.639586 1.337880 -1.224792 -21.541997 0.033119 -0.953842 -13.500355 -27.364747 -14.544309 -122.077282 -194.344919 -84.264317 0.000003 -0.000000 0.000001 73.712761 10.231532 6.353836 0.000001 0.000006 -3.007175 -5.000183 -7.999227 0.000101 -12.553713 31.423812 13.432622 -126.842541 184.241593 83.254651 0.000000 -0.000001 -0.000000 61.612794 -5.511807 -1.705356 0.000003 -0.000003 3.009879 -5.000241 7.998719 -0.000164 -0.875969 -174.600631 1.747197 179.999991 -0.000005 -1.045000 174.006459 -4.155235 -0.660866 -0.000002 0.000001 0.066044 69.060500 6.869725 2.188949 25.456957 -7.355615 0.000010 -0.312213 176.583039 1.360299 -0.000005 -0.000004 -1.104950 -8.132214 3.679330 0.890020 -0.000006 0.000004 -0.094126 68.001022 -6.927153 -2.104319 25.456957 7.355613 -0.000000 
